<?xml version="1.0"?>
<svg xmlns="http://www.w3.org/2000/svg" xmlns:xlink="http://www.w3.org/1999/xlink" version="1.1" id="Capa_1" x="0px" y="0px" width="512px" height="512px" viewBox="0 0 535.5 535.5" style="enable-background:new 0 0 535.5 535.5;" xml:space="preserve" class=""><g><g>
	<g>
		<path d="M0,54.793v-0.009V54.793z" data-original="#000000" class="" fill="#000000"/>
		<path d="M534.879,46.35c-3.232-24.04-20.062-42.037-42.64-45.632C489.523,0.373,486.836,0,483.9,0l0,0H65.273    C34.549,0,9.562,24.576,9.562,54.793v419.421c0,29.003,24.47,51.724,55.711,51.724H483.9c30.381,0,51.6-21.267,51.6-51.714l0,0    V54.793v-0.009C535.5,51.848,535.175,49.104,534.879,46.35z M497.25,433.966c0,29.614-24.107,53.722-53.731,53.722h-4.781H101.544    c-29.625,0-53.731-24.107-53.731-53.722V96.763v-4.781c0-29.625,24.107-53.731,53.731-53.731h341.984    c29.614,0,53.722,24.107,53.722,53.722V433.966z" data-original="#000000" class="" fill="#000000"/>
		<path d="M443.519,47.812h-4.781H101.544c-24.355,0-44.169,19.804-44.169,44.16v341.994c0,24.355,19.813,44.159,44.169,44.159    h341.984c24.346,0,44.159-19.804,44.159-44.159V96.763v-4.781C487.688,67.616,467.874,47.812,443.519,47.812z M420.75,411.188    h-33.67l-33.268-39.426V344.25h49.802l-14.928-40.277c-5.785-13.464-20.129-17.098-32.579-17.098h-2.295v-153H191.25v92.469    l21.927,2.324l16.658-23.466c3.758-5.67,8.779-7.946,14.898-11.227c6.053-3.29,12.728-2.725,19.67-2.725h44.284    c5.097,0,9.304-1.147,12.689,0.918c3.375,2.123,6.368,4.647,9.112,9.802l14.976,29.309c0.956,2.247,1.022,4.169,0.19,6.301    c-0.889,2.2-2.485,3.672-4.838,4.762c-1.913,1.033-3.949,1.033-6.12,0.125c-2.171-0.832-3.825-1.606-4.906-3.863l-16.82-28.229    H287.42l16.754,34.635c3.385,6.895,5.23,13.866,5.604,22.95l2.802,38.04h42.381c3.892,0,7.334,1.425,10.452,3.031    c3.127,1.674,5.097,1.894,5.995,4.274l5.795,11.819h-73.411c-4.073,0-7.583,0.86-10.452-1.722    c-2.868-2.515-4.456-4.694-4.848-8.759l-4.265-42.343l-39.761,81.989c-2.869,6.827-7.268,9.084-13.253,9.084H211.58    l49.323-103.639L243.7,221.544l-14.535,21.095c-3.376,5.154-8.597,7.516-14.851,6.809l-23.065-2.477v123.7l34.54,40.517H124.312    v-306H420.75V411.188z M266.631,164.083c0,5.996-1.912,11.025-5.861,15.022c-3.893,3.93-8.855,5.929-14.851,5.929    c-5.738,0-10.519-1.999-14.334-5.929c-3.892-3.997-5.804-9.027-5.804-15.022c0-5.805,1.913-10.634,5.804-14.564    c3.825-3.939,8.597-5.871,14.334-5.871c5.986,0,10.959,1.932,14.851,5.871C264.729,153.44,266.631,158.278,266.631,164.083z" data-original="#000000" class="" fill="#000000"/>
		<path d="M483.9,535.5L483.9,535.5L483.9,535.5z" data-original="#000000" class="" fill="#000000"/>
	</g>
</g></g> </svg>
